<svg width="87" height="80" viewBox="0 0 87 80" fill="none" xmlns="http://www.w3.org/2000/svg">
<path d="M43.4275 46.64C47.4476 46.64 50.7065 43.6433 50.7065 39.9467C50.7065 36.25 47.4476 33.2533 43.4275 33.2533C39.4074 33.2533 36.1485 36.25 36.1485 39.9467C36.1485 43.6433 39.4074 46.64 43.4275 46.64Z" fill="#DB7093"/>
<path d="M43.4275 55.28C33.205 55.28 24.273 54.1733 17.5885 52.0667C13.253 50.7067 9.57 48.8933 6.9455 46.8267C4.1615 44.64 2.6825 42.2533 2.6825 39.9467C2.6825 35.52 7.9605 31.1867 16.82 28.36C24.07 26.04 33.524 24.7467 43.413 24.7467C53.128 24.7467 62.4515 26 69.658 28.2933C73.8775 29.6267 77.43 31.36 79.953 33.28C82.6935 35.3867 84.1435 37.6933 84.1435 39.9467C84.1435 44.5467 78.242 49.2 68.73 52.0933C62.002 54.1467 53.012 55.28 43.4275 55.28ZM43.4275 27.9467C34.046 27.9467 24.766 29.2 17.98 31.3733C9.831 33.9867 6.177 37.56 6.177 39.9467C6.177 42.4267 10.1065 46.3333 18.7195 49.04C25.0415 51.0267 33.5965 52.08 43.4275 52.08C52.6495 52.08 61.248 51.0133 67.6425 49.0533C76.589 46.32 80.678 42.4133 80.678 39.9467C80.678 38.68 79.634 37.1867 77.7345 35.7333C75.545 34.0533 72.355 32.52 68.5415 31.3067C61.683 29.1467 52.7655 27.9467 43.4275 27.9467Z" fill="#DB7093"/>
<path d="M26.912 73.3067C25.433 73.3067 24.128 73.0134 23.026 72.4267C18.8645 70.2134 17.4145 63.84 19.169 55.3734C20.6045 48.4267 24.1135 40.2667 29.058 32.3867C33.9155 24.6533 39.7445 17.8533 45.501 13.2533C48.865 10.56 52.2725 8.58668 55.3465 7.54668C58.696 6.41335 61.596 6.41335 63.713 7.53335C68.0485 9.82668 69.484 16.8667 67.454 25.88C66.0185 32.28 62.5965 40 57.8115 47.64C52.7075 55.7734 47.1975 62.3334 41.876 66.6134C38.425 69.3867 34.8725 71.4134 31.6245 72.4667C29.928 73.0267 28.333 73.3067 26.912 73.3067ZM30.5515 33.1867L32.0595 33.9867C27.376 41.4533 23.9105 49.4667 22.5765 55.9734C20.967 63.7734 22.5185 68.4667 24.7515 69.6534C25.3025 69.9467 26.0275 70.1067 26.912 70.1067C29.7975 70.1067 34.336 68.4267 39.585 64.2134C44.6165 60.1734 49.88 53.88 54.7955 46.0534C59.4065 38.7067 62.6835 31.32 64.0465 25.2533C65.946 16.76 64.3075 11.56 61.973 10.32C60.784 9.69335 58.8555 9.77335 56.5355 10.56C53.853 11.4667 50.8225 13.24 47.7775 15.68C42.311 20.0533 36.7285 26.56 32.0595 34L30.5515 33.1867Z" fill="#DB7093"/>
<path d="M59.943 73.3467C55.999 73.3467 50.9965 71.16 45.7765 67.0267C39.9475 62.4134 34.017 55.5467 29.058 47.6667C24.186 39.9333 20.706 31.8933 19.2415 25C18.386 20.9733 18.2265 17.28 18.7775 14.3067C19.3865 11.0667 20.822 8.76001 22.9535 7.62668C27.2745 5.32001 34.626 7.69335 42.108 13.8133C47.415 18.1467 52.983 24.7333 57.7825 32.36C62.901 40.4933 66.3375 48.16 67.7005 54.5334C68.585 58.6667 68.73 62.5067 68.1065 65.6267C67.4395 68.9467 65.9315 71.3067 63.7565 72.4667C62.669 73.0534 61.3785 73.3467 59.943 73.3467ZM32.074 46.0667C36.772 53.5334 42.601 60.2934 48.053 64.6C54.5925 69.7734 59.7835 70.8934 62.031 69.6934C64.3655 68.4534 66.0765 63.3734 64.3075 55.16C63.0025 49.1334 59.711 41.8 54.781 33.9733C50.1555 26.6267 44.834 20.32 39.8025 16.2133C32.7555 10.4533 27.0425 9.16001 24.708 10.4C23.519 11.0267 22.6345 12.6133 22.214 14.8533C21.7355 17.44 21.8805 20.7467 22.6635 24.3867C24.0555 30.9333 27.3905 38.6267 32.074 46.0667Z" fill="#DB7093"/>
</svg>
