<svg width="87" height="67" viewBox="0 0 87 67" fill="none" xmlns="http://www.w3.org/2000/svg">
<path d="M72.5 11.1667H14.5C10.5016 11.1667 7.25 13.6708 7.25 16.75V50.25C7.25 53.3292 10.5016 55.8333 14.5 55.8333H72.5C76.4984 55.8333 79.75 53.3292 79.75 50.25V16.75C79.75 13.6708 76.4984 11.1667 72.5 11.1667ZM72.5 16.75V18.1765L43.5 35.5491L14.5 18.1793V16.75H72.5ZM14.5 50.25V25.2478L41.2742 41.286C41.909 41.6699 42.6928 41.8787 43.5 41.8787C44.3072 41.8787 45.091 41.6699 45.7257 41.286L72.5 25.2478L72.5072 50.25H14.5Z" fill="#DB7093"/>
</svg>
