<svg width="87" height="80" viewBox="0 0 87 80" fill="none" xmlns="http://www.w3.org/2000/svg">
<path fill-rule="evenodd" clip-rule="evenodd" d="M43.5942 6.66667C23.6241 6.66667 7.43848 21.55 7.43848 39.9133C7.43848 54.6 17.7951 67.0633 32.1646 71.4633C33.9735 71.7633 34.626 70.74 34.626 69.86C34.626 69.07 34.597 66.9767 34.5861 64.2067C24.5267 66.2133 22.4025 59.7467 22.4025 59.7467C20.764 55.9067 18.3896 54.8833 18.3896 54.8833C15.109 52.82 18.6397 52.8667 18.6397 52.8667C22.272 53.1 24.1751 56.2933 24.1751 56.2933C27.4014 61.3733 32.6431 59.9067 34.6949 59.0567C35.0247 56.9067 35.9672 55.44 36.9967 54.61C28.971 53.7733 20.532 50.92 20.532 38.1767C20.532 34.5533 21.9421 31.58 24.244 29.26C23.8779 28.4167 22.6272 25.0333 24.6029 20.46C24.6029 20.46 27.637 19.5633 34.5426 23.8633C37.4919 23.1256 40.5341 22.749 43.5906 22.7433C46.6471 22.7479 49.6896 23.1245 52.6386 23.8633C59.5479 19.56 62.5784 20.46 62.5784 20.46C64.554 25.0333 63.3142 28.4167 62.9372 29.26C65.2572 31.58 66.6492 34.55 66.6492 38.1767C66.6492 50.9533 58.203 53.76 50.1482 54.5833C51.4351 55.61 52.5951 57.6367 52.5951 60.7367C52.5951 65.1833 52.5516 68.77 52.5516 69.86C52.5516 70.75 53.1969 71.7833 55.042 71.4567C69.4042 67.05 79.75 54.5967 79.75 39.9133C79.75 21.55 63.5644 6.66667 43.5942 6.66667Z" fill="#DB7093"/>
</svg>
