<svg width="70" height="87" viewBox="0 0 70 87" fill="none" xmlns="http://www.w3.org/2000/svg">
<path d="M14.5338 26.0891C18.0583 26.0891 20.9154 22.5381 20.9154 18.1576C20.9154 13.7772 18.0583 10.2261 14.5338 10.2261C11.0093 10.2261 8.1521 13.7772 8.1521 18.1576C8.1521 22.5381 11.0093 26.0891 14.5338 26.0891Z" fill="#DB7093"/>
<path d="M26.9413 32.0994V76.1032H37.9342V54.3424C37.9342 48.6004 38.8033 43.0396 44.5317 43.0396C50.1813 43.0396 50.2513 49.6045 50.2513 54.7049V76.1069H61.25V51.9752C61.25 40.1215 59.1967 31.0119 48.0492 31.0119C42.6971 31.0119 39.1096 34.6622 37.6425 38.1169H37.4938V32.0994H26.9413ZM9.0271 32.0994H20.0375V76.1032H9.0271V32.0994Z" fill="#DB7093"/>
</svg>
