<svg width="87" height="80" viewBox="0 0 87 80" fill="none" xmlns="http://www.w3.org/2000/svg">
<path d="M10.875 10H76.125V70H10.875V10ZM70.7781 55.69C70.3032 52.9533 68.3639 50.6533 62.6146 48.5067C60.6136 47.6433 58.3915 47.0467 57.7245 45.66C57.478 44.8333 57.4418 44.3867 57.6013 43.8967C58.0109 42.2833 60.0916 41.8 61.7229 42.2467C62.785 42.5467 63.7638 43.2967 64.3764 44.5C67.1858 42.81 67.1858 42.81 69.1469 41.6867C68.411 40.64 68.0449 40.1833 67.5555 39.7333C65.8409 37.9733 63.5571 37.0733 59.8488 37.15L57.9348 37.3733C56.0969 37.7867 54.3424 38.69 53.2839 39.8867C50.1845 43.1133 51.0799 48.7367 54.8318 51.0667C58.5401 53.6167 63.9704 54.1767 64.6627 56.5767C65.3152 59.5033 62.2993 60.44 59.3159 60.1033C57.1155 59.65 55.8902 58.64 54.5454 56.7633L49.5719 59.39C50.141 60.5867 50.7935 61.1133 51.7722 62.1633C56.5029 66.55 68.3312 66.3267 70.4519 59.65C70.528 59.4267 71.1044 57.89 70.6549 55.5267L70.7781 55.69ZM46.3565 37.5767H40.2448C40.2448 42.42 40.2194 47.2367 40.2194 52.09C40.2194 55.17 40.3898 57.9967 39.8424 58.8667C38.947 60.59 36.6306 60.37 35.583 60.0633C34.5064 59.5767 33.959 58.9 33.3246 57.9267C33.1542 57.6667 33.0274 57.44 32.9802 57.44L28.0213 60.2533C28.8514 61.83 30.0621 63.1833 31.6245 64.0433C33.9481 65.32 37.0693 65.7333 40.339 65.06C42.4705 64.4933 44.3084 63.33 45.2618 61.53C46.6538 59.2067 46.3565 56.3533 46.3456 53.1667C46.3746 48.03 46.3456 42.89 46.3456 37.7167L46.3565 37.5767Z" fill="#DB7093"/>
</svg>
